# xmcd CD database file
#
# Track frame offsets:
#	150
#	29794
#	49048
#	60632
#
# Disc length: 1320 seconds
#
# Revision: 0
# Processed by: cddbd v1.5.2PL0 Copyright (c) Steve Scherf et al.
# Submitted via: CDex 1.70beta2
#
DISCID=33052604
DTITLE=divers - Jazzmag n°640 - 08-2012 (Gregory Porter - The Work Song)
DYEAR=2012
DGENRE=Jazz
TTITLE0=Gregory Porter - Worksong
TTITLE1=Nat Adderley - Work Song
TTITLE2=Nina Simone - Work Song
TTITLE3=Gregory Porter - 1960 What ?
EXTD=YEAR: 2012
EXTT0=
EXTT1=
EXTT2=
EXTT3=
PLAYORDER=
